<!-- icon666.com - MILLIONS vector ICONS FREE --><svg viewBox="0 0 152 152" xmlns="http://www.w3.org/2000/svg" xmlns:xlink="http://www.w3.org/1999/xlink"><linearGradient id="linear-gradient" gradientUnits="userSpaceOnUse" x1="68.79" x2="125.65" y1="72.46" y2="129.33"><stop offset="0" stop-color="#004c8c"></stop><stop offset=".19" stop-color="#004c8c" stop-opacity=".84"></stop><stop offset=".6" stop-color="#004c8c" stop-opacity=".42"></stop><stop offset=".97" stop-color="#004c8c" stop-opacity="0"></stop></linearGradient><g id="Layer_2" data-name="Layer 2"><g id="_13.messenger" data-name="13.messenger"><circle id="background" cx="76" cy="76" fill="#0077db" r="76"></circle><path id="shadow" d="m149.59 95.08a76.1 76.1 0 0 1 -60.59 55.8l-36.84-36.88 6.93-13.59c-39.22-50.52 46.27-49.55 46.27-49.55z" fill="url(#linear-gradient)"></path><path id="icon" d="m76 38c-21 0-38 15.76-38 35.19a34.23 34.23 0 0 0 14.16 27.4v13.41l12.94-7.09a41 41 0 0 0 10.9 1.47c21 0 38-15.75 38-35.19s-17-35.19-38-35.19zm3.77 47.38-9.67-10.31-18.88 10.32 20.78-22.05 9.92 10.32 18.64-10.32z" fill="#fff"></path></g></g></svg>