<!-- icon666.com - MILLIONS vector ICONS FREE --><svg id="svg8" viewBox="0 0 48 48" xmlns="http://www.w3.org/2000/svg" xmlns:svg="http://www.w3.org/2000/svg"><g id="g1714" transform="translate(0 1)"><path id="path3403" d="m6 1.999927c-2.19871 0-4 1.801294-4 4v22c0 2.198705 1.80129 4 4 4h5v6c-.001.86706 1.02605 1.32485 1.66992.744141l7.49024-6.744141h13.83984c2.19871 0 4-1.801295 4-4v-22c0-2.198706-1.80129-4-4-4zm4 11c1.64501 0 3 1.35499 3 3s-1.35499 3-3 3-3-1.35499-3-3 1.35499-3 3-3zm10 0c1.64501 0 3 1.35499 3 3s-1.35499 3-3 3-3-1.35499-3-3 1.35499-3 3-3zm10 0c1.64501 0 3 1.35499 3 3s-1.35499 3-3 3-3-1.35499-3-3 1.35499-3 3-3z" font-variant-ligatures="normal" font-variant-position="normal" font-variant-caps="normal" font-variant-numeric="normal" font-variant-alternates="normal" font-variant-east-asian="normal" font-feature-settings="normal" font-variation-settings="normal" text-indent="0" text-align="start" text-decoration-line="none" text-decoration-style="solid" text-decoration-color="rgb(0,0,0)" text-transform="none" text-orientation="mixed" white-space="normal" shape-padding="0" shape-margin="0" inline-size="0" isolation="auto" mix-blend-mode="normal" solid-color="rgb(0,0,0)" solid-opacity="1" vector-effect="none" fill="#000000" style="fill: rgb(255, 255, 255);"></path><path id="path1700" d="m41 20a1 1 0 0 0 -1 1 1 1 0 0 0 1 1h1.02539c1.11161-.000001 1.97461.863004 1.97461 1.974609v11.050782c0 1.111605-.863 1.974609-1.97461 1.974609h-2.02539a1.0001 1.0001 0 0 0 -1 1v2.585938l-3.29297-3.292969a1.0001 1.0001 0 0 0 -.70703-.292969h-9.02539c-1.11161 0-1.97461-.863004-1.97461-1.974609a1 1 0 0 0 -1-1 1 1 0 0 0 -1 1c0 2.184694 1.78991 3.974609 3.97461 3.974609h8.61133l4.70703 4.707031a1.0001 1.0001 0 0 0 1.70703-.707031v-4h1.02539c2.1847 0 3.97461-1.789915 3.97461-3.974609v-11.050782c0-2.184694-1.78991-3.974612-3.97461-3.974609z" font-variant-ligatures="normal" font-variant-position="normal" font-variant-caps="normal" font-variant-numeric="normal" font-variant-alternates="normal" font-variant-east-asian="normal" font-feature-settings="normal" font-variation-settings="normal" text-indent="0" text-align="start" text-decoration-line="none" text-decoration-style="solid" text-decoration-color="rgb(0,0,0)" text-transform="none" text-orientation="mixed" white-space="normal" shape-padding="0" shape-margin="0" inline-size="0" isolation="auto" mix-blend-mode="normal" solid-color="rgb(0,0,0)" solid-opacity="1" vector-effect="none" fill="#000000" style="fill: rgb(255, 255, 255);"></path></g></svg>